<mxfile host="app.diagrams.net" modified="2024-03-14T06:49:21.448Z" agent="Mozilla/5.0 (Windows NT 10.0; Win64; x64) AppleWebKit/537.36 (KHTML, like Gecko) Chrome/114.0.5735.289 Safari/537.36" version="24.0.6" etag="Z9rGl4f6EEdj7PlPShmf" type="github">
  <diagram name="第 1 页" id="mryfutUIeLAyoP1thIPj">
    <mxGraphModel>
      <root>
        <mxCell id="0" />
        <mxCell id="1" parent="0" />
      </root>
    </mxGraphModel>
  </diagram>
</mxfile>
